<?xml version="1.0" encoding="UTF-8" standalone="no"?>
<!DOCTYPE svg PUBLIC "-//W3C//DTD SVG 1.1//EN"
 "http://www.w3.org/Graphics/SVG/1.1/DTD/svg11.dtd">
<!-- Generated by graphviz version 2.47.3 (20210619.1520)
 -->
<!-- Title: dependencies Pages: 1 -->
<svg width="532pt" height="174pt"
 viewBox="0.00 0.00 532.00 173.80" xmlns="http://www.w3.org/2000/svg" xmlns:xlink="http://www.w3.org/1999/xlink">
<g id="graph0" class="graph" transform="scale(1 1) rotate(0) translate(4 169.8)">
<title>dependencies</title>
<polygon fill="white" stroke="transparent" points="-4,4 -4,-169.8 528,-169.8 528,4 -4,4"/>
<text text-anchor="middle" x="262" y="-8.2" font-family="sans-serif" font-size="14.00">dependencies</text>
<g id="clust1" class="cluster">
<title>cluster_VaccineDataModule</title>
<polygon fill="none" stroke="black" stroke-dasharray="1,5" points="8,-32.8 8,-157.8 516,-157.8 516,-32.8 8,-32.8"/>
</g>
<g id="clust6" class="cluster">
<title>cluster_VaccineDataModule_providers</title>
<polygon fill="none" stroke="black" points="16,-40.8 16,-92.8 508,-92.8 508,-40.8 16,-40.8"/>
</g>
<!-- FindUser -->
<g id="node1" class="node">
<title>FindUser</title>
<ellipse fill="#fdb462" stroke="black" cx="453" cy="-66.8" rx="46.95" ry="18"/>
<text text-anchor="middle" x="453" y="-62.6" font-family="Times,serif" font-size="14.00">FindUser</text>
</g>
<!-- VaccineDataModule -->
<g id="node4" class="node">
<title>VaccineDataModule</title>
<polygon fill="#8dd3c7" stroke="black" points="370.83,-149.8 367.83,-153.8 346.83,-153.8 343.83,-149.8 239.17,-149.8 239.17,-113.8 370.83,-113.8 370.83,-149.8"/>
<text text-anchor="middle" x="305" y="-127.6" font-family="Times,serif" font-size="14.00">VaccineDataModule</text>
</g>
<!-- FindUser&#45;&gt;VaccineDataModule -->
<g id="edge1" class="edge">
<title>FindUser&#45;&gt;VaccineDataModule</title>
<path fill="none" stroke="black" d="M453,-84.91C453,-104.14 453,-131.8 453,-131.8 453,-131.8 381.21,-131.8 381.21,-131.8"/>
<polygon fill="black" stroke="black" points="381.21,-128.3 371.21,-131.8 381.21,-135.3 381.21,-128.3"/>
</g>
<!-- FindVaccineName -->
<g id="node2" class="node">
<title>FindVaccineName</title>
<ellipse fill="#fdb462" stroke="black" cx="305" cy="-66.8" rx="83.37" ry="18"/>
<text text-anchor="middle" x="305" y="-62.6" font-family="Times,serif" font-size="14.00">FindVaccineName</text>
</g>
<!-- FindVaccineName&#45;&gt;VaccineDataModule -->
<g id="edge2" class="edge">
<title>FindVaccineName&#45;&gt;VaccineDataModule</title>
<path fill="none" stroke="black" d="M305,-84.91C305,-84.91 305,-103.79 305,-103.79"/>
<polygon fill="black" stroke="black" points="301.5,-103.79 305,-113.79 308.5,-103.79 301.5,-103.79"/>
</g>
<!-- VaccineDataService -->
<g id="node3" class="node">
<title>VaccineDataService</title>
<ellipse fill="#fdb462" stroke="black" cx="114" cy="-66.8" rx="89.7" ry="18"/>
<text text-anchor="middle" x="114" y="-62.6" font-family="Times,serif" font-size="14.00">VaccineDataService</text>
</g>
<!-- VaccineDataService&#45;&gt;VaccineDataModule -->
<g id="edge3" class="edge">
<title>VaccineDataService&#45;&gt;VaccineDataModule</title>
<path fill="none" stroke="black" d="M114,-84.91C114,-104.14 114,-131.8 114,-131.8 114,-131.8 229,-131.8 229,-131.8"/>
<polygon fill="black" stroke="black" points="229,-135.3 239,-131.8 229,-128.3 229,-135.3"/>
</g>
</g>
</svg>
