<?xml version="1.0" encoding="UTF-8" standalone="no"?>
<!DOCTYPE svg PUBLIC "-//W3C//DTD SVG 1.1//EN"
 "http://www.w3.org/Graphics/SVG/1.1/DTD/svg11.dtd">
<!-- Generated by graphviz version 2.47.3 (20210619.1520)
 -->
<!-- Title: dependencies Pages: 1 -->
<svg width="586pt" height="174pt"
 viewBox="0.00 0.00 586.00 173.80" xmlns="http://www.w3.org/2000/svg" xmlns:xlink="http://www.w3.org/1999/xlink">
<g id="graph0" class="graph" transform="scale(1 1) rotate(0) translate(4 169.8)">
<title>dependencies</title>
<polygon fill="white" stroke="transparent" points="-4,4 -4,-169.8 582,-169.8 582,4 -4,4"/>
<text text-anchor="middle" x="289" y="-8.2" font-family="sans-serif" font-size="14.00">dependencies</text>
<g id="clust1" class="cluster">
<title>cluster_AppModule</title>
<polygon fill="none" stroke="black" stroke-dasharray="1,5" points="8,-32.8 8,-157.8 570,-157.8 570,-32.8 8,-32.8"/>
</g>
<g id="clust3" class="cluster">
<title>cluster_AppModule_imports</title>
<polygon fill="none" stroke="black" points="154,-40.8 154,-92.8 562,-92.8 562,-40.8 154,-40.8"/>
</g>
<g id="clust6" class="cluster">
<title>cluster_AppModule_providers</title>
<polygon fill="none" stroke="black" points="16,-40.8 16,-92.8 146,-92.8 146,-40.8 16,-40.8"/>
</g>
<!-- UserModule -->
<g id="node1" class="node">
<title>UserModule</title>
<polygon fill="#8dd3c7" stroke="black" points="553.98,-84.8 550.98,-88.8 529.98,-88.8 526.98,-84.8 468.02,-84.8 468.02,-48.8 553.98,-48.8 553.98,-84.8"/>
<text text-anchor="middle" x="511" y="-62.6" font-family="Times,serif" font-size="14.00">UserModule</text>
</g>
<!-- AppModule -->
<g id="node4" class="node">
<title>AppModule</title>
<polygon fill="#8dd3c7" stroke="black" points="348.66,-149.8 345.66,-153.8 324.66,-153.8 321.66,-149.8 265.34,-149.8 265.34,-113.8 348.66,-113.8 348.66,-149.8"/>
<text text-anchor="middle" x="307" y="-127.6" font-family="Times,serif" font-size="14.00">AppModule</text>
</g>
<!-- UserModule&#45;&gt;AppModule -->
<g id="edge1" class="edge">
<title>UserModule&#45;&gt;AppModule</title>
<path fill="none" stroke="black" d="M511,-84.91C511,-104.14 511,-131.8 511,-131.8 511,-131.8 358.77,-131.8 358.77,-131.8"/>
<polygon fill="black" stroke="black" points="358.77,-128.3 348.77,-131.8 358.77,-135.3 358.77,-128.3"/>
</g>
<!-- VaccineDataModule -->
<g id="node2" class="node">
<title>VaccineDataModule</title>
<polygon fill="#8dd3c7" stroke="black" points="449.83,-84.8 446.83,-88.8 425.83,-88.8 422.83,-84.8 318.17,-84.8 318.17,-48.8 449.83,-48.8 449.83,-84.8"/>
<text text-anchor="middle" x="384" y="-62.6" font-family="Times,serif" font-size="14.00">VaccineDataModule</text>
</g>
<!-- VaccineDataModule&#45;&gt;AppModule -->
<g id="edge2" class="edge">
<title>VaccineDataModule&#45;&gt;AppModule</title>
<path fill="none" stroke="black" d="M333.46,-84.91C333.46,-84.91 333.46,-103.79 333.46,-103.79"/>
<polygon fill="black" stroke="black" points="329.96,-103.79 333.46,-113.79 336.96,-103.79 329.96,-103.79"/>
</g>
<!-- VaccineNameModule -->
<g id="node3" class="node">
<title>VaccineNameModule</title>
<polygon fill="#8dd3c7" stroke="black" points="300.33,-84.8 297.33,-88.8 276.33,-88.8 273.33,-84.8 161.67,-84.8 161.67,-48.8 300.33,-48.8 300.33,-84.8"/>
<text text-anchor="middle" x="231" y="-62.6" font-family="Times,serif" font-size="14.00">VaccineNameModule</text>
</g>
<!-- VaccineNameModule&#45;&gt;AppModule -->
<g id="edge3" class="edge">
<title>VaccineNameModule&#45;&gt;AppModule</title>
<path fill="none" stroke="black" d="M282.79,-84.91C282.79,-84.91 282.79,-103.79 282.79,-103.79"/>
<polygon fill="black" stroke="black" points="279.29,-103.79 282.79,-113.79 286.29,-103.79 279.29,-103.79"/>
</g>
<!-- AppService -->
<g id="node5" class="node">
<title>AppService</title>
<ellipse fill="#fdb462" stroke="black" cx="81" cy="-66.8" rx="56.74" ry="18"/>
<text text-anchor="middle" x="81" y="-62.6" font-family="Times,serif" font-size="14.00">AppService</text>
</g>
<!-- AppService&#45;&gt;AppModule -->
<g id="edge4" class="edge">
<title>AppService&#45;&gt;AppModule</title>
<path fill="none" stroke="black" d="M81,-84.91C81,-104.14 81,-131.8 81,-131.8 81,-131.8 255.28,-131.8 255.28,-131.8"/>
<polygon fill="black" stroke="black" points="255.28,-135.3 265.28,-131.8 255.28,-128.3 255.28,-135.3"/>
</g>
</g>
</svg>
